<?xml version="1.0" encoding="utf-8"?>
<!-- Generator: Adobe Illustrator 27.5.0, SVG Export Plug-In . SVG Version: 6.00 Build 0)  -->
<svg version="1.1" xmlns="http://www.w3.org/2000/svg" xmlns:xlink="http://www.w3.org/1999/xlink" x="0px" y="0px"
	 viewBox="0 0 500 500" style="enable-background:new 0 0 500 500;" xml:space="preserve">
<g id="BACKGROUND">
	<rect transform="matrix(-1 -1.224647e-16 1.224647e-16 -1 500 500)" style="fill:#FFFFFF;" width="500" height="500"/>
</g>
<g id="OBJECTS">
	<g>
		<g>
			<linearGradient id="SVGID_1_" gradientUnits="userSpaceOnUse" x1="247.8022" y1="324.8119" x2="251.7304" y2="74.06">
				<stop  offset="0" style="stop-color:#C95F71"/>
				<stop  offset="1" style="stop-color:#384997"/>
			</linearGradient>
			<path style="fill:url(#SVGID_1_);" d="M311.392,118.741H187.912c-11.827,0-21.416,9.588-21.416,21.415v88.284
				c0,0.156,0.001,0.313,0.001,0.469c0.11,19.872,24.446,29.516,38.406,15.373l49.368-50.012l-33.057-20.354l8.325-8.326
				l39.659,13.125l16.051-16.726c2.591-2.7,6.805-3.402,9.914-1.32c4.219,2.825,4.569,8.607,1.106,11.931l-16.935,16.251
				l13.125,39.66l-8.325,8.325l-20.354-33.057l-41.567,43.154c-23.279,24.168-6.521,64.709,27.034,65.006
				c0.25,0.002,0.501,0.003,0.752,0.003h0c46.117,0,83.503-37.385,83.503-83.503v-87.589
				C333.502,128.64,323.603,118.741,311.392,118.741z"/>
			<g>
				<defs>
					<path id="SVGID_00000047774166397420619440000001194221999390202533_" d="M311.392,118.741H187.912
						c-11.827,0-21.416,9.588-21.416,21.415v88.284c0,0.156,0.001,0.313,0.001,0.469c0.11,19.872,24.446,29.516,38.406,15.373
						l49.368-50.012l-33.057-20.354l8.325-8.326l39.659,13.125l16.051-16.726c2.591-2.7,6.805-3.402,9.914-1.32
						c4.219,2.825,4.569,8.607,1.106,11.931l-16.935,16.251l13.125,39.66l-8.325,8.325l-20.354-33.057l-41.567,43.154
						c-23.279,24.168-6.521,64.709,27.034,65.006c0.25,0.002,0.501,0.003,0.752,0.003h0c46.117,0,83.503-37.385,83.503-83.503
						v-87.589C333.502,128.64,323.603,118.741,311.392,118.741z"/>
				</defs>
				<clipPath id="SVGID_00000152259435773658366980000010929990639259605636_">
					<use xlink:href="#SVGID_00000047774166397420619440000001194221999390202533_"  style="overflow:visible;"/>
				</clipPath>
				<g style="opacity:0.26;clip-path:url(#SVGID_00000152259435773658366980000010929990639259605636_);">
					<path style="fill:#DD5773;" d="M239.883,259.331c-0.992-0.597-2.142-0.864-3.272-1.116c-0.72-0.16-1.441-0.318-2.161-0.475
						c-2.083-0.455-4.167-0.911-6.251-1.366c-0.828-0.181-1.817-0.518-1.975-1.351c-0.093-0.489,0.152-0.971,0.265-1.456
						c0.113-0.485,0.007-1.123-0.468-1.273c-0.488-1.367-1.968-2.208-3.298-2.792c-1.329-0.584-2.763-0.949-3.996-1.715
						c-1.124-0.7-2.043-1.724-2.617-2.918c-0.885-1.841-3.955-1.763-5.988-1.56c-0.843,0.084-1.667,0.303-2.486,0.521
						c-1.609,0.428-3.219,0.855-4.828,1.283c-0.167,0.044-0.339,0.087-0.513,0.126c-0.005,0.001-0.008,0.003-0.013,0.004
						c-0.022,0.006-0.043,0.007-0.065,0.012c-0.14,0.031-0.281,0.057-0.423,0.08c-1.832,0.308-3.109-0.412-3.394-0.517l0.001-0.004
						c-0.496-0.213-0.967-0.553-1.297-0.892c-0.561-0.576-0.822-1.391-0.873-2.193c-0.052-0.802-0.059-1.577,0.008-2.378
						c0.055-0.658-0.602-1.18-1.25-1.305c-0.649-0.125-1.318,0.011-1.978-0.031c-0.659-0.042-1.389-0.346-1.584-0.977
						c-0.12-0.388-0.009-0.807,0.117-1.194c0.318-0.974,0.47-2.227,1.32-2.8c0.508-0.343,1.11-0.835,0.952-1.427
						c-0.091-0.342-0.435-0.574-0.786-0.617c-0.351-0.043-0.704,0.072-1.019,0.231c-1.649,0.833-2.646,2.883-4.476,3.136
						c-1.536,0.212-2.964-1.055-3.478-2.518c-0.513-1.463-0.402-3.135-0.335-4.684c0.071-1.65,1.303-3.185,2.9-3.61
						c0.778-0.207,1.597-0.169,2.4-0.23c0.803-0.061,1.473-0.555,2.229-0.833c1.079-0.397,2.347-0.239,3.296,0.411
						c1.484,1.016,1.994,2.936,3.028,4.408c0.279,0.398,0.717,0.807,1.186,0.676c0.358-0.099,0.567-0.496,0.571-0.868
						c0.004-0.371,0.049-0.862,0.03-1.233c-0.051-0.993-0.103-1.994,0.042-2.977c0.145-0.984,0.502-1.961,1.173-2.695
						c1.079-1.179,2.978-1.54,3.358-3.093c0.304-1.245,1.314-2.19,2.372-2.913c1.058-0.723,2.224-1.315,3.121-2.23
						c0.753-0.768,1.176-1.759,1.667-2.716c0.665-1.297,1.98-2.239,3.422-2.451c1.023-0.15,2.253-0.031,2.887-0.848
						c0.493-0.635,0.351-1.577-0.062-2.267s-1.046-1.215-1.57-1.824c-0.524-0.609-0.973-1.364-0.863-2.16
						c0.108-0.786,0.73-1.429,1.451-1.758c0.721-0.329,1.533-0.394,2.326-0.409c1.43-0.027,2.898,0.083,4.256-0.365
						c1.358-0.448,2.604-1.655,2.537-3.084c-0.063-1.346-1.197-2.351-2.162-3.291c-0.405-0.394-0.786-0.899-1.068-1.443
						c-0.012-0.021-0.025-0.036-0.037-0.058c-0.029-0.054-0.045-0.106-0.072-0.159c-0.022-0.049-0.045-0.096-0.065-0.145
						c-0.717-1.593-0.42-2.992-0.395-3.402c0.04-0.5,0.007-1.091-0.406-1.377c-0.498-0.345-1.181-0.003-1.631,0.402
						c-0.451,0.405-0.915,0.91-1.521,0.908c-0.752-0.003-1.26-0.817-1.327-1.566c-0.067-0.749,0.149-1.499,0.105-2.249
						c-0.077-1.323-1.287-2.135-2.304-2.984c-0.728-0.608-1.812-0.877-2.644-0.422c-0.596,0.325-0.96,0.944-1.295,1.534
						c-0.674,1.186-1.365,2.422-1.471,3.782c-0.077,0.985,0.16,1.977,0.06,2.96c-0.051,0.503-0.227,1.089-0.517,1.562
						c-0.003,0.005-0.003,0.008-0.006,0.014c-0.44,0.687-1.133,1.9-1.172,2.483c-0.083,0.901-0.263,1.794-0.563,2.648
						c-0.132,0.376-0.312,0.776-0.669,0.954c-0.505,0.252-1.14-0.081-1.434-0.563c-0.294-0.482-0.344-1.067-0.425-1.625
						c-0.566-3.866-3.214-7.473-6.707-9.222c-1.374-0.688-1.742-2.597-1.185-4.029c0.557-1.432,1.783-2.482,2.991-3.433
						c2.309-1.818,4.742-3.294,7.112-5.032c0.952-0.698,1.903-1.396,2.855-2.094c0.861-0.631,1.768-1.325,2.114-2.335
						c0.183-0.535,0.189-1.113,0.301-1.667s0.369-1.13,0.872-1.388c0.849-0.435,1.836,0.239,2.496,0.928
						c0.973,1.016,1.583,2.271,2.299,3.476c0.004,0.007,0.005,0.012,0.009,0.019c0.98,1.69,0.128,2.94-0.685,3.383v0
						c-1.153,0.629-2.306,1.258-3.459,1.887c-0.46,0.251-0.996,0.671-0.844,1.173c0.161,0.532,0.886,0.545,1.436,0.622
						c0.963,0.134,1.793,0.786,2.361,1.576c0.568,0.79,1.286,1.636,1.509,2.583c0.183,0.779,1.074,1.269,1.862,1.128
						c0.788-0.14,1.419-0.805,1.662-1.567c0.243-0.763,0.14-1.602-0.133-2.354c-0.273-0.752-0.264-1.71-0.867-2.236
						c-0.358-0.312-0.196-1.01,0.263-1.132c0.352-0.094,0.718,0.118,0.966,0.384c0.249,0.266,0.429,0.594,0.699,0.839
						c0.442,0.403,1.166,0.483,1.775,0.291c0.315-0.13,0.908-0.566,0.544-1.729c0,0,0,0,0,0c-0.435-1.321-0.87-2.642-1.305-3.963
						c-0.418-1.269-0.836-2.539-1.254-3.808c-0.338-1.026-0.866-1.998-1.787-2.563c-1.814-1.114-3.34-2.693-4.392-4.543
						c-0.459-0.807-0.836-1.674-1.455-2.367c-0.619-0.692-1.865-1.805-2.633-1.284c-1.452,0.982-2.564,2.459-3.106,4.126
						c-0.21,0.647-0.336,1.354-0.13,2.002c0.212,0.667,0.742,1.176,1.133,1.756c0.391,0.581,0.387,1.337,0.139,1.991
						c-0.201,0.53-0.409,1.073-0.783,1.499c-0.374,0.426-0.955,0.717-1.508,0.59c-0.697-0.16-1.094-0.891-1.313-1.573
						c-0.329-1.029-0.341-2.12-0.241-3.196c0.15-1.615,0.3-3.23,0.45-4.845c0.045-0.488,0.103-1.007,0.414-1.385
						c0.445-0.54,1.228-0.602,1.914-0.739s1.469-0.545,1.484-1.244c0.009-0.394-0.258-0.761-0.607-0.942
						c-0.349-0.182-0.766-0.198-1.153-0.124c-1.196,0.232-2.073,1.246-2.733,2.269c-1.068,1.656-1.13,3.757-2.039,5.505
						c-0.437,0.841-0.466,1.827-0.469,2.775s0.004,1.927-0.373,2.797c-0.377,0.869-1.257,1.6-2.196,1.48
						c-0.875-0.112-1.491-0.873-2.151-1.458c-0.992-0.878-2.407-0.9-3.607-1.461c-0.52-0.243-1.124,0.036-1.619,0.327
						c-0.494,0.291-1.06,0.613-1.609,0.447c-0.487-0.148-0.78-0.626-1.116-1.008c-0.906-1.027-2.43-0.918-3.763-1.233
						c-0.262-0.062-0.532-0.128-0.743-0.294c-0.211-0.166-0.347-0.461-0.244-0.709c0.1-0.242,0.377-0.354,0.632-0.411
						c0.256-0.057,0.533-0.09,0.731-0.261c0.199-0.17,0.281-0.645,0.125-0.855c-0.598-0.806-1.336-1.533-2.196-2.042
						c-0.001-0.001,0-0.002-0.001-0.002c-0.303-0.192-0.916-0.525-1.166-0.743c-0.005-0.005-0.01-0.009-0.015-0.013
						c-0.015-0.013-0.033-0.028-0.044-0.04l-0.006,0.005c-0.277-0.227-0.657-0.35-1.018-0.423c-0.514-0.104-1.075-0.185-1.444-0.557
						c-0.367-0.37-0.447-0.933-0.706-1.386c-0.376-0.658-1.117-1.042-1.865-1.168c-0.748-0.126-1.591-0.325-2.317-0.108
						c-1.11,0.331-2.223,0.662-3.367,0.846c-0.492,0.079-1,0.131-1.486,0.019c-0.486-0.112-0.86-0.703-1.25-1.013
						c-2.679-2.13-5.641-4.191-7.39-7.132c-0.627-1.054-1.657-1.861-2.831-2.218c-1.173-0.356-2.706-0.58-3.692,0.149
						c-0.999,0.739-1.999,1.478-2.998,2.217c-0.448,0.331-0.914,0.671-1.458,0.79c-0.602,0.132-1.29-0.004-1.792,0.353
						c-0.337,0.239-0.508,0.659-0.543,1.07c-0.034,0.412-0.134,0.892,0.013,1.278c0.502,1.315,0.946,3.079,0.331,4.345
						c-0.249,0.512-0.94,0.646-1.493,0.512c-0.553-0.134-1.041-0.461-1.582-0.636c-0.848-0.275-1.816-0.149-2.566,0.333
						c-0.75,0.482-0.913,1.29-1.189,2.138c-0.195,0.597,0.102,1.315,0.662,1.6c0.958,0.488,2.282-0.396,3.316-0.1
						c0.284-0.112,0.597,0.183,0.614,0.488c0.016,0.305-0.166,0.582-0.361,0.817c-1.028,1.236-2.549,1.927-3.997,2.626
						c-1.447,0.699-3.075,1.476-3.671,2.968c-0.385,0.963-0.311,2.098,0.195,3.004c0.176,0.315,0.401,0.604,0.547,0.935
						c0.145,0.331,0.367,0.849,0.123,1.115c-0.287,0.313-0.383,0.788-0.239,1.187c0.143,0.399,0.558,0.581,0.981,0.61
						c0.37,0.025,0.75,0.053,1.089,0.203c0.34,0.151,0.637,0.451,0.676,0.821c0.056,0.528-0.398,0.956-0.812,1.29
						c-0.809,0.653-1.619,1.306-2.428,1.959c-0.233,0.188-0.49,0.429-0.46,0.728c0.028,0.276,0.311,0.47,0.587,0.495
						c0.277,0.025,0.547-0.077,0.806-0.178c1.186-0.46,2.333-1.119,3.579-1.375c1.034-0.212,1.763-1.154,2.177-2.124
						c0.415-0.97,0.613-2.029,1.103-2.963c0.476-0.909,1.223-1.673,2.12-2.169c0.351-0.194,0.766-0.351,1.148-0.227
						c0.382,0.123,0.52,0.57,0.339,0.929c-0.244,0.485-0.7,0.821-1.118,1.167c-0.418,0.347-0.833,0.759-0.937,1.292
						c-0.104,0.533,0.15,0.911,0.693,0.899c0.806,0.124,1.545-0.438,2.134-1.002c0.589-0.564,1.312-1.237,2.127-1.237
						c2.339-0.001,4.231,2.366,5.791,4.108c1.191,1.329,2.371,2.709,3.099,4.339c1.284,2.876,1.841,6.27,0.96,9.293
						c-0.499,1.712,0.05,3.684,1.361,4.892c0.454,0.419,1.013,0.784,1.217,1.367c0.208,0.593-0.014,1.242-0.234,1.831
						c-1.224,3.276-2.963,6.287-3.381,9.76c-0.387,3.219-0.43,6.893,1.634,9.393c2.286,2.769,2.97,6.197,4.02,9.631
						c0.492,1.61,1.22,3.148,2.152,4.549c0.289,0.434,0.67,0.897,1.192,0.919c0.324,0.014,0.649-0.169,0.804-0.454
						c0.156-0.285,0.071-0.726,0.033-1.048c-0.092-0.788-0.558-1.474-0.993-2.138c-0.944-1.439-2.333-3.087-2.434-4.805
						c-0.032-0.545-0.064-1.089-0.096-1.633c-0.01-0.165-0.018-0.336,0.039-0.491c0.058-0.155,0.201-0.291,0.366-0.287
						c0.165,0.005,0.542,0.248,0.459,0.391c0.107,2.078,1.42,3.872,2.68,5.528c0.733,0.963,1.938,2.015,2.232,3.189
						c0.537,2.142,1.323,4.255,2.635,6.031c1.312,1.776,3.132,3.261,5.285,3.751c1.893,0.431,3.982,0.953,5.898,1.267
						c1.933,0.317,3.662,1.681,4.42,3.487c0.473,1.126,0.621,2.448,1.484,3.311c0.943,0.943,2.551,0.866,3.877,1.004
						c0.863,0.09,1.675,0.59,2.143,1.32c0.468,0.731,0.584,1.677,0.305,2.499c-0.274,0.809-0.884,1.45-1.356,2.162
						c-1.117,1.686-0.795,3.765-1.14,5.757c-0.543,3.132,1.203,6.157,2.879,8.858c1.345,2.167,2.096,4.79,4.109,6.356
						c2.418,1.881,3.716,4.918,4.127,7.954c0.411,3.036,1.096,6.596-0.065,9.431c-1.362,3.325-2.746,6.967-1.756,10.421
						c0.517,1.803,1.647,3.383,2.17,5.184c0.419,1.444,0.431,2.971,0.647,4.46c0.216,1.489,0.687,3.028,1.803,4.036
						c1.191,1.076,1.986,2.578,3.216,3.61c0.452,0.379,0.963,0.742,1.551,0.798c0.588,0.056,1.253-0.313,1.322-0.899
						c0.037-0.314-0.096-0.621-0.226-0.91c-0.717-1.592-1.434-3.184-2.15-4.776c-0.278-0.617-0.075-1.203,0.236-1.804
						c0.312-0.601,0.802-1.089,1.165-1.661c0.363-0.571,0.593-1.305,0.316-1.922c-0.278-0.618-1-0.977-1.186-1.628
						c-0.155-0.54,0.116-1.117,0.479-1.546c0.363-0.429,0.823-0.773,1.157-1.226c0.812-1.099,0.673-2.792-0.306-3.745
						c-0.246-0.937,0.335-2.011,1.017-2.699c0.682-0.687,1.568-1.126,2.419-1.586c0.851-0.461,1.71-0.978,2.275-1.764
						c-0.099-0.987,0.286-1.939,1.036-2.587c0.75-0.649,1.643-1.123,2.361-1.807c1.971-1.875,2.25-4.87,3.412-7.33
						c1.11-2.351,3.115-4.265,5.515-5.265c1.116-1.69,1.643-3.984,1.734-6.008c0.045-1.003-0.042-2.021,0.176-3.001
						c0.217-0.98,0.824-1.955,1.783-2.252c1.106-0.342,1.906-2.154,1.806-3.307C241.7,260.919,240.875,259.928,239.883,259.331z"/>
					<path style="fill:#DD5773;" d="M177.839,150.571c-0.556,0.618-0.814,1.494-0.681,2.315c0.133,0.821,0.653,1.571,1.376,1.983
						c0.28,0.16,0.592,0.274,0.829,0.493c0.236,0.219,0.375,0.595,0.204,0.868c-0.207,0.331-0.701,0.303-1.064,0.161
						c-0.363-0.142-0.735-0.361-1.116-0.279c-0.413,0.089-0.678,0.522-0.713,0.943c-0.035,0.421,0.109,0.834,0.251,1.232
						c0.277,0.778,0.646,1.65,1.429,1.912c1.126,0.377,2.294-0.768,3.457-0.535c0.582,0.116,1.038,0.557,1.441,0.992
						c0.403,0.436,0.812,0.904,1.369,1.109c0.556,0.206,1.305,0.03,1.513-0.525c0.187-0.502-0.129-1.06-0.055-1.591
						c0.097-0.694,0.794-1.106,1.302-1.588c1.384-1.312,1.51-3.436,1.545-5.343c0.007-0.365,0.012-0.739-0.111-1.083
						c-0.123-0.344-0.404-0.655-0.765-0.707c-0.66-0.094-1.094,0.63-1.512,1.15c-0.348,0.434-1.209,1.269-1.826,1.062
						c-0.659-0.22-1.455-1.423-1.944-1.915c-0.544-0.546-1.11-1.107-1.827-1.389C179.887,149.425,178.594,149.731,177.839,150.571z"
						/>
					<path style="fill:#DD5773;" d="M174.334,151.681c0.375,0.038,0.736-0.178,0.987-0.459c0.251-0.281,0.417-0.625,0.614-0.947
						c0.602-0.985,1.515-1.777,2.576-2.233c0.845-0.364,1.826-0.551,2.427-1.248c0.677-0.785,0.577-2.116-0.21-2.791
						c-1.261-1.081-3.162,0.013-4.208,0.886c-1.409,1.176-2.469,2.773-2.979,4.538c-0.127,0.439-0.221,0.905-0.117,1.35
						C173.528,151.22,173.88,151.635,174.334,151.681z"/>
					<path style="fill:#DD5773;" d="M186.427,231.172c-0.318-0.002-0.739,0.107-0.741,0.425c-0.001,0.234,0.241,0.385,0.452,0.487
						c0.713,0.346,1.426,0.691,2.14,1.037c1.018,0.493,2.04,0.988,3.118,1.329c0.367,0.116,0.765,0.214,1.133,0.098
						c1.845-0.582-1.294-2.178-1.818-2.418C189.371,231.517,187.902,231.183,186.427,231.172z"/>
					<path style="fill:#DD5773;" d="M195.89,235.03c-0.394-0.007-0.862,0.023-1.068,0.359c-0.164,0.267-0.075,0.633,0.135,0.864
						c0.211,0.231,0.516,0.352,0.818,0.434c0.612,0.165,1.258,0.2,1.884,0.1c0.631-0.101,1.49-0.656,0.882-1.323
						C197.97,234.839,196.628,235.044,195.89,235.03z"/>
					<path style="fill:#DD5773;" d="M255.927,169.192c0.67-0.987,0.96-2.3,0.487-3.395c-0.489-1.133-1.748-2.203-1.239-3.328
						c0.369-0.816,1.423-0.977,2.26-1.297c1.932-0.739,3.155-2.982,2.728-5.007c-0.968-4.595,0.615-9.579,3.8-13.03
						c0.409-0.443,0.852-0.872,1.108-1.417c0.256-0.545,0.282-1.25-0.116-1.702c-0.446-0.507-1.237-0.518-1.889-0.343
						c-0.652,0.174-1.276,0.494-1.95,0.517c-0.674,0.023-1.443-0.403-1.47-1.077c-0.027-0.684,0.664-1.136,1.189-1.576
						c0.525-0.44,0.924-1.327,0.378-1.74c-2.734-2.068-6.394-2.987-9.644-1.895c-2.031,0.682-3.931,2.029-6.071,1.939
						c-1.184-0.049-2.307-0.543-3.484-0.682c-1.177-0.138-2.575,0.229-3.034,1.322c-2.341,1.579-4.748,3.775-7.09,5.354
						c-1.534,1.035-3.18,2.22-3.656,4.008c-0.348,1.305,0.051,2.783,1.007,3.736c0.653,0.651,1.511,1.045,2.273,1.564
						c0.762,0.519,1.476,1.251,1.57,2.167c0.243,2.363,1.32,4.629,1.701,6.973c0.267,1.644,0.407,3.322,0.206,4.974
						c-0.296,2.438-1.349,4.779-2.976,6.619c-0.611,0.691-0.907,1.755-1.138,2.647c-0.231,0.893-0.222,1.884,0.222,2.692
						c0.423,0.77,1.219,1.35,1.398,2.21c0.084,0.402,0.019,0.817,0.006,1.228c-0.013,0.41,0.037,0.852,0.304,1.163
						c0.267,0.312,1.317,0.37,1.674,0.167c0.79-0.449,1.706,0.324,2.252,1.05c0.546,0.726,1.321,1.579,2.186,1.301
						c0.832-0.267,0.995-1.338,1.172-2.194c0.591-2.861,2.863-5.099,5.352-6.628c2.49-1.529,5.273-2.526,7.786-4.015
						C254.255,170.89,255.257,170.179,255.927,169.192z"/>
					<path style="fill:#DD5773;" d="M248.277,187.883c0.465-0.49,0.671-1.089,1.226-1.535c0.592-0.476,1.569-0.739,1.939-1.441
						c0.209-0.397,0.156-0.906-0.093-1.279c-0.249-0.373-0.672-0.613-1.114-0.685c-1.39-0.227-2.706,1.068-4.09,0.808
						c-0.754-0.142-1.512-0.734-2.206-0.406c-0.563,0.266-0.714,1.044-0.487,1.624c0.227,0.579,0.723,1.004,1.201,1.403
						C245.51,187.089,247.151,189.067,248.277,187.883z"/>
					<path style="fill:#DD5773;" d="M405.563,153.621c-0.193-0.24-0.439-0.435-0.626-0.679c-0.423-0.553-0.5-1.29-0.523-1.985
						c-0.023-0.696-0.015-1.418-0.31-2.049c-0.295-0.63-1.006-1.133-1.672-0.931c-1.002,0.303-2.215,0.373-3.206,0.035
						c-1.542-0.525-2.446-2.211-3.968-2.792c-1.353-0.517-2.793-0.69-4.208-1c-1.557-0.342-3.182-0.683-4.727-0.29
						c-1.545,0.393-2.967,1.763-2.851,3.352c0.018,0.241-0.209,0.466-0.413,0.595c-0.205,0.128-0.445,0.185-0.68,0.239
						c-1.048,0.242-2.095,0.485-3.143,0.727c-0.442,0.102-0.891,0.205-1.345,0.188c-0.454-0.018-0.921-0.171-1.225-0.508
						c-0.766-0.851-1.967-1.354-2.861-2.07c-0.238-0.19-0.51-0.391-0.812-0.36c-0.246,0.025-0.447,0.199-0.644,0.349
						c-0.909,0.691-2.096,1.004-3.227,0.85c-2.418-0.329-4.892-1.001-7.23-1.701c-0.962-0.288-2.017-0.253-2.958,0.096
						c-0.187,0.07-0.384,0.164-0.472,0.343c-0.129,0.262,0.03,0.569,0.185,0.817c0.346,0.554,0.715,1.309,0.988,1.903
						c0.118,0.257,0.01,0.573-0.187,0.778c-0.196,0.204-0.464,0.321-0.725,0.433c-1.229,0.528-2.459,1.056-3.689,1.584
						c-0.653,0.28-1.354,0.567-2.053,0.439c-0.577-0.106-1.074-0.49-1.434-0.953c-0.36-0.463-0.746-0.965-0.989-1.499
						c-0.18-0.397-0.57-0.668-0.984-0.804c-0.414-0.137-0.856-0.157-1.292-0.176c-0.669-0.029-1.478-0.017-2.084-0.302
						c-0.254-0.119-0.557,0.088-0.673,0.344c-0.115,0.256-0.109,0.547-0.163,0.822c-0.15,0.757-0.776,1.365-1.503,1.624
						c-0.727,0.26-1.535,0.207-2.277-0.004c-0.742-0.211-1.593-0.357-2.263-0.74c-0.891-0.51-2.159-0.19-2.702,0.68
						c-0.302,0.484-0.489,1.17-1.051,1.271c-0.571,0.103-1.022-0.57-0.973-1.148c0.049-0.578,0.405-1.076,0.659-1.597
						c0.923-1.891-0.187-4-1.246-5.819c-0.367-0.63-1.344-0.784-1.887-0.298c-0.296,0.265-0.468,0.674-0.826,0.845
						c-0.387,0.185-0.868,0.013-1.167-0.294c-0.299-0.307-0.39-0.774-0.614-1.14c-0.429-0.701-0.88-1.425-1.569-1.872
						c-0.689-0.447-1.688-0.53-2.283,0.037c-0.475,0.453-0.567,1.206-0.368,1.832c0.199,0.626,0.684,1.249,1.274,1.537
						c0.506,0.247,0.686,0.93,0.497,1.46c-0.189,0.53-0.663,0.914-1.171,1.155c-0.509,0.241-1.064,0.364-1.596,0.547
						c-1.407,0.482-2.221,1.848-3.528,2.558c-0.448,0.243-0.781,0.691-0.884,1.191c-0.103,0.5,0.024,1.042,0.339,1.444
						c0.246,0.313,0.591,0.536,0.846,0.843c0.254,0.307,0.403,0.767,0.183,1.099c-0.162,0.244-0.482,0.344-0.774,0.32
						c-0.292-0.023-0.582-0.181-0.874-0.194c-0.456-0.02-0.88,0.312-1.058,0.733c-0.177,0.421-0.139,0.908,0.009,1.339
						c0.148,0.432,0.386,0.68,0.651,1.052c0.227,0.319,0.459,0.649,0.553,1.029c0.094,0.38,0.02,0.829-0.284,1.077
						c-0.34,0.278-0.853,0.221-1.246,0.024c-0.393-0.196-0.718-0.508-1.096-0.732c-0.378-0.224-0.896-0.541-1.194-0.217
						c-0.635,0.689-0.617,1.771-0.316,2.659c0.301,0.888,0.836,1.681,1.143,2.567c0.307,0.886,0.507,2.107-0.219,2.7
						c-0.561,0.459-1.453,0.243-1.963-0.272c-0.51-0.515-0.733-1.241-0.939-1.936c-0.336-1.134-0.672-2.267-1.008-3.401
						c-0.122-0.41-0.247-0.829-0.498-1.176c-0.25-0.347-0.653-0.615-1.08-0.588c-0.757,0.048-1.166,0.934-1.201,1.692
						c-0.104,2.216,1.844,4.289,1.437,6.469c-0.084,0.449-0.598,0.714-1.053,0.667c-0.454-0.047-0.849-0.326-1.196-0.623
						c-0.347-0.297-0.678-0.627-1.094-0.816c-0.416-0.189-0.952-0.202-1.288,0.107c-0.428,0.393-0.165,0.962-0.174,1.544
						c-0.007,0.468-0.44,0.821-0.879,0.984s-0.92,0.212-1.331,0.435c-0.403,0.219-0.713,0.594-1.139,0.763
						c-0.582,0.232-1.549,0.029-1.565-0.597c-0.012-0.469-0.428-0.893-0.897-0.913c-0.582-0.024-1.044,0.478-1.345,0.977
						c-0.301,0.499-0.526,1.155-1.034,1.438c-0.132,0.358-0.56,0.521-0.941,0.514c-0.382-0.007-0.752-0.135-1.133-0.162
						c-0.343-0.024-0.714,0.048-0.953,0.295c-0.239,0.247-0.281,0.895-0.017,1.115c0.092,0.272,0.184,0.55,0.187,0.838
						c0.002,0.287-0.101,0.591-0.333,0.76c-0.398,0.289-1.009,0.168-1.453-0.043c-0.576-0.274-1.265,0.181-1.555,0.749
						c-0.29,0.568-0.327,1.229-0.532,1.833c-0.204,0.604-0.685,1.208-1.323,1.202c-0.657-0.005-1.116-0.629-1.463-1.187
						c-0.411-0.66-0.822-1.32-1.233-1.98c-0.144-0.231-0.292-0.478-0.289-0.75c0.006-0.447,0.435-0.792,0.873-0.876
						c0.439-0.085,0.888,0.021,1.329,0.094c0.441,0.073,0.918,0.106,1.311-0.106c0.689-0.371,0.811-1.374,0.452-2.069
						c-0.36-0.695-0.774-1.276-1.541-1.436c-1.99-0.413-4.143-0.921-5.425-2.499c-0.452-0.555-0.79-1.238-1.406-1.604
						c-0.603-0.357-1.373-0.333-2.034-0.102c-0.662,0.232-1.154,0.831-1.813,1.07c-2.846,1.033-4.806,3.377-6.603,5.813
						c-0.95,1.289-1.271,2.919-1.813,4.426c-0.542,1.507-1.544,3.101-2.986,3.798c-0.262,0.127-0.529,0.257-0.739,0.459
						c-0.21,0.202-0.358,0.491-0.317,0.779c0.04,0.289,0.256,0.522,0.348,0.8c0.094,0.282,0.054,0.588,0.014,0.882
						c-0.102,0.744-0.096,1.496-0.119,2.247c-0.012,0.391,0.094,0.796,0.354,1.088c0.26,0.292,0.689,0.445,1.059,0.32
						c0.589-0.2,0.816-0.969,1.39-1.209c0.594-0.249,1.292,0.219,1.528,0.818c0.236,0.599,0.03,1.273,0.196,1.896
						c0.144,0.54,0.288,1.08,0.431,1.62c0.112,0.422,0.27,0.899,0.673,1.067c0.38,0.159,0.808-0.031,1.175-0.218
						c0.561-0.285,1.134-0.579,1.559-1.042c0.425-0.463,0.72-1.135,0.648-1.759c-0.386-3.363-1.457-7.396,0.648-10.047
						c0.438-0.552,0.913-1.075,1.419-1.566c0.35-0.339,0.721-0.667,1.16-0.879c0.439-0.212,0.957-0.299,1.418-0.143
						c0.461,0.157,0.842,0.592,0.845,1.079c0.003,0.458-0.301,0.854-0.59,1.21c-0.489,0.602-0.836,1.257-1.385,1.805
						c-0.712,0.711-0.848,1.926-0.312,2.778c0.536,0.851,1.653,1.038,2.656,0.966c0.957-0.069,1.925,0.017,2.855,0.253
						c0.315,0.08,0.686,0.249,0.705,0.573c0.019,0.323-0.334,0.537-0.648,0.613c-0.684,0.165-1.435,0.054-2.072,0.353
						c-0.821,0.385-1.303,1.514-0.94,2.345c0.197,0.45-0.269,0.927-0.739,1.071c-0.469,0.144-0.999,0.129-1.407,0.402
						c-0.745,0.498-0.663,1.596-0.978,2.434c-0.425,1.131-1.647,1.803-2.848,1.93s-2.469-0.022-3.645-0.297
						c-0.939-0.22-1.706-1.042-1.861-1.994c-0.039-0.237-0.043-0.482-0.126-0.708c-0.082-0.225-0.27-0.436-0.51-0.451
						c-0.297-0.019-0.539,0.277-0.571,0.573c-0.032,0.296,0.086,0.586,0.202,0.86c0.197,0.467,0.362,0.783,0.341,1.289
						c-0.021,0.513-0.357,0.967-0.767,1.276c-0.41,0.309-0.893,0.5-1.356,0.722c-1.798,0.863-3.575,2.127-4.305,3.984
						c-0.257,0.654-0.989,0.963-1.65,1.204c-0.719,0.263-1.437,0.526-2.156,0.789c-0.633,0.231-1.357,0.565-1.489,1.225
						c-0.12,0.599,0.323,1.161,0.794,1.55c0.471,0.388,1.025,0.734,1.268,1.293c0.197,0.452,0.146,1.002-0.129,1.411
						c-0.276,0.409-0.773,0.64-1.265,0.644c-0.981,0.008-1.994,0.022-2.889,0.423c-1.207,0.541-1.74,1.746-2.109,3.017
						c-0.45,1.552,0.113,3.348,1.369,4.365c1.256,1.017,3.13,1.193,4.554,0.43c2.714-1.455,3.163-5.453,5.814-7.019
						c1.356-0.801,3.022-0.797,4.596-0.771c2.644,0.044,4.319,3.189,5.03,5.736c0.124,0.443,0.262,0.958,0.683,1.142
						c0.331,0.145,0.732,0.015,1.003-0.225c0.271-0.24,0.44-0.572,0.602-0.895c0.266-0.529,0.539-1.112,0.41-1.69
						c-0.184-0.827-1.073-1.247-1.803-1.677c-0.969-0.57-1.814-1.351-2.458-2.273c-0.242-0.347-0.462-0.8-0.264-1.174
						c0.172-0.325,0.607-0.434,0.964-0.346c0.357,0.089,0.655,0.328,0.94,0.561c2.466,2.016,4.631,4.524,5.372,7.623
						c0.087,0.365,0.163,0.742,0.362,1.061c0.198,0.319,0.554,0.572,0.927,0.528c0.498-0.058,0.804-0.617,0.792-1.118
						c-0.012-0.501-0.246-0.966-0.421-1.436c-0.175-0.47-0.289-1.011-0.068-1.461c0.416-0.334,1.051-0.251,1.493,0.048
						c0.442,0.299,0.734,0.767,1.014,1.221c0.674,1.094,1.349,2.189,2.023,3.283c0.382,0.62,0.96,1.021,1.686,1.088
						c0.725,0.066,1.446-0.12,2.161-0.259c0.715-0.139,1.473-0.23,2.157,0.019c0.906,0.329,1.545,1.28,1.508,2.243
						c-0.034,0.882-0.478,1.714-1.273,2.097c-0.795,0.382-1.716,0.368-2.599,0.346c-1.414-0.035-2.827-0.07-4.241-0.105
						c-0.962-0.024-1.939-0.051-2.853-0.352c-0.897-0.296-1.834-0.857-2.718-0.523c-0.551,0.208-0.918,0.717-1.271,1.188
						c-0.353,0.471-0.768,0.959-1.343,1.085c-0.575,0.126-1.289-0.341-1.17-0.917c-0.626-1.029-2.077-1.799-3.273-1.941
						c-0.402-0.048-0.844-0.047-1.155-0.306c-0.517-0.432-0.338-1.241-0.339-1.915c-0.001-1.168-0.762-2.301-1.843-2.743
						c-1.533-0.627-3.338-0.296-4.913,0.217c-1.575,0.513-3.089,1.259-4.727,1.505c-0.686,0.103-1.39,0.117-2.056,0.312
						c-0.666,0.195-1.315,0.616-1.556,1.267c-1.182,3.185-4.288,5.492-6.307,8.223c-1.34,1.812-2.698,3.658-3.458,5.78
						c-0.387,1.081-0.335,2.24-0.428,3.384c-0.06,0.749-0.121,1.498-0.181,2.247c-0.037,0.462-0.075,0.926-0.033,1.387
						c0.072,0.796,0.384,1.569,0.886,2.192c1.469,0.409,2.255,2.265,2.729,3.715c0.474,1.45,0.863,3.051,2.046,4.014
						c1.018,0.829,2.451,0.999,3.741,0.754c1.291-0.245,2.477-0.857,3.644-1.461c2.661-1.379,6.101,0.056,8.701,1.547
						c0.471,0.27,0.983,0.475,1.404,0.817c0.613,0.499,1.283,1.113,1.266,1.904c-0.013,0.626-0.461,1.149-0.672,1.738
						c-0.358,1.003,0.066,2.228,0.967,2.795c2.734,1.718,3.684,5.857,2.585,8.893c-0.402,1.112-1.068,2.125-1.358,3.271
						c-0.29,1.146-0.082,2.553,0.915,3.188c1.316,0.837,1.588,2.589,1.869,4.123c0.231,1.261,0.144,2.559,0.297,3.831
						c0.153,1.273,0.606,2.599,1.639,3.359c1.511,1.112,0.006,4.009,1.156,5.491c0.71,0.915,1.989,1.164,3.147,1.149
						c2.659-0.035,5.288-1.155,7.156-3.048c0.951-0.964,2.087-1.869,2.489-3.162c0.259-0.833,0.308-1.758,0.805-2.475
						c0.501-0.723,1.36-1.094,2.055-1.634c0.695-0.54,1.266-1.488,0.866-2.272c-0.732-1.433-0.286-3.372,0.658-4.674
						c0.764-1.054,1.931-1.732,2.872-2.631c0.941-0.899,1.688-2.247,1.245-3.471c-0.937-2.587-0.989-5.499-0.351-8.176
						c0.638-2.677,2.393-5.17,4.921-6.254c1.705-0.731,2.972-2.148,3.937-3.732c0.964-1.585,1.18-3.778,0.014-5.221
						c-0.634-0.786-1.821-1.149-2.814-1.332c-0.993-0.183-2.032-0.263-2.923-0.737c-0.788-0.419-1.409-1.14-1.708-1.981
						c-0.214-0.602-0.906-0.848-1.353-1.305c-0.489-0.5-0.828-1.123-1.161-1.737c-0.573-1.057-1.147-2.115-1.72-3.172
						c-1.197-2.208-2.215-4.65-3.402-6.864c-0.187-0.348-0.378-0.712-0.391-1.107c-0.013-0.395,0.21-0.827,0.595-0.917
						c0.456-0.106,0.863,0.284,1.163,0.643c2.512,3.007,4.594,6.373,6.163,9.964c0.555,1.27,0.813,2.694,1.628,3.814
						c0.815,1.12,2.104,1.991,3.488,1.938c1.081-0.041,2.057-0.622,2.98-1.186c1.404-0.858,2.809-1.717,4.213-2.575
						c0.894-0.546,1.8-1.103,2.506-1.876c0.706-0.773,1.197-1.807,1.085-2.849c-0.112-1.041-0.952-2.03-1.998-2.084
						c-1.483,0.016-3.039-0.282-4.423-0.814c-0.788-0.303-1.621-0.78-1.844-1.594c-0.268-0.979-0.917-1.771-1.761-2.334
						c-0.246-0.164-0.511-0.306-0.715-0.52c-0.204-0.213-0.34-0.523-0.255-0.806c0.07-0.231,0.276-0.402,0.504-0.482
						c0.228-0.08,0.475-0.082,0.716-0.065c0.437,0.03,0.878,0.119,1.26,0.334c0.823,0.462,1.291,1.434,2.041,2.006
						c0.75,0.572,1.687,0.958,2.626,0.865c0.496-0.049,0.987-0.229,1.48-0.158c0.595,0.085,1.071,0.514,1.553,0.873
						c0.482,0.359,1.087,0.677,1.661,0.497c1.626-0.508,3.468,0.261,5.167,0.39c0.466,0.036,0.948,0.076,1.356,0.302
						s0.723,0.693,0.621,1.148c-0.195,0.862,0.087,1.806,0.819,2.301c0.732,0.495,1.778,0.468,2.484-0.064
						c0.517-0.391,1.248,0.141,1.498,0.74c0.25,0.598,0.184,1.273,0.178,1.922c-0.012,1.34,0.251,2.683,0.769,3.919
						c0.75,1.789,1.589,3.598,2.68,5.202c0.333,0.49,0.749,1.023,1.339,1.07c0.631,0.051,1.17-0.511,1.359-1.116
						c0.189-0.605,0.129-1.254,0.157-1.887c0.086-1.951,1.078-3.844,2.634-5.024c1.035-0.786,1.882-1.842,2.935-2.604
						c0.466-0.337,0.964-0.72,1.107-1.277c0.12-0.465-0.022-1.013,0.267-1.398c0.198-0.264,0.556-0.367,0.886-0.343
						c0.329,0.025,0.639,0.158,0.943,0.289c1.014,0.439,2.059,0.899,2.812,1.708c0.466,0.5,0.9,1.047,1.049,1.715
						c0.149,0.667,0.182,1.367,0.445,1.999c0.263,0.631,0.847,1.202,1.53,1.165c0.334-0.018,0.651-0.178,0.985-0.174
						c0.477,0.007,0.894,0.357,1.119,0.777c0.225,0.42,0.293,0.904,0.358,1.376c0.319,2.324-0.041,4.826,0.941,6.956
						c0.298,0.647,0.688,1.248,1.075,1.846c0.59,0.91,1.18,1.821,1.771,2.731c0.326,0.503,0.81,0.716,1.378,0.906
						c0.346,0.116,0.779,0.163,1.028-0.104c0.175-0.187,0.195-0.479,0.117-0.723c-0.078-0.244-0.238-0.452-0.396-0.654
						c-0.544-0.699-0.921-1.475-1.406-2.216c-0.481-0.735-0.966-1.467-1.454-2.197c-0.421-0.63-0.851-1.268-1.086-1.988
						c-0.236-0.72-0.256-1.546,0.121-2.203c0.223-0.388,0.425-0.712,0.869-0.765c0.444-0.053,0.91,0.161,1.16,0.532
						c0.031,0.467,0.596,0.727,1.041,0.873c0.445,0.145,0.952,0.267,1.202,0.662c0.238,0.377,0.161,0.896,0.42,1.259
						c0.198,0.278,0.587,0.402,0.909,0.292c0.323-0.11,0.554-0.446,0.541-0.787c-0.016-0.436,0.423-1.032,0.781-1.281
						c0.358-0.249,0.761-0.446,1.052-0.771c0.548-0.614,0.532-1.649-0.035-2.246c-1.509-1.588-2.982-3.339-3.451-5.479
						c-0.086-0.391-0.147-0.799-0.057-1.189c0.089-0.39,0.358-0.761,0.744-0.868c0.966-0.269,1.989-0.311,2.987-0.408
						c0.628-0.061,1.263-0.124,1.863-0.318c0.601-0.195,1.174-0.534,1.536-1.052c0.76-1.085,2.012-1.687,3.112-2.425
						c0.515-0.345,1.045-0.842,1.006-1.46c-0.044-0.694,0.172-1.323,0.571-1.892c0.399-0.569,0.901-1.07,1.22-1.688
						c0.319-0.618,0.42-1.42,0.005-1.978c-0.365-0.491-0.73-1.037-0.872-1.632c-0.113-0.472-0.095-0.964-0.157-1.445
						c-0.13-1.013-0.625-1.975-1.374-2.669c-0.625-0.579-0.725-1.74-0.167-2.384c0.311-0.359,0.805-0.608,0.902-1.073
						c0.103-0.494-0.31-0.943-0.732-1.22c-0.422-0.277-0.917-0.511-1.14-0.964c-0.28-0.568,0.019-1.305,0.554-1.642
						c0.536-0.337,1.234-0.327,1.832-0.12c1.018,0.353,1.78,1.202,2.401,2.082c0.762,1.078,1.116,2.391,1.63,3.607
						c0.149,0.352,0.31,0.72,0.617,0.947c0.54,0.399,1.371,0.181,1.787-0.346c0.416-0.527,0.48-1.261,0.351-1.92
						c-0.159-0.811-0.854-1.598-1.359-2.252c-0.366-0.474-0.742-0.967-0.887-1.549c-0.244-0.98,0.209-1.985,0.65-2.893
						c0.462-0.951,0.938-1.922,1.695-2.659c0.523-0.51,1.16-0.888,1.71-1.37c0.549-0.482,1.028-1.118,1.065-1.848
						c0.167-3.229,1.452-6.259,0.762-9.418c-0.315-1.441-0.992-2.773-1.777-4.021c-0.569-0.905-1.291-1.781-2.289-2.165
						c-0.172-0.066-0.35-0.117-0.52-0.188c-0.757-0.314-1.323-1.046-1.438-1.857c-0.115-0.811,0.227-1.671,0.867-2.183
						c0.771-0.616,0.885-1.657,0.72-2.631c-0.09-0.532-0.301-1.07-0.177-1.595c0.104-0.44,0.435-0.798,0.82-1.035
						c0.385-0.237,0.823-0.368,1.256-0.497c1.817-0.541,3.792-0.166,5.625-0.646c0.69-0.181,1.405-0.424,1.875-0.96
						c0.47-0.536,0.579-1.45,0.051-1.929c-0.065-0.878-0.131-1.822-0.196-2.699c-0.029-0.387-0.056-0.782,0.044-1.156
						c0.1-0.374,0.355-0.73,0.726-0.844c0.875-0.27,1.749,0.882,2.607,0.562c0.325,0.183,0.637-0.216,0.738-0.576
						c0.101-0.359,0.16-0.801,0.498-0.959c0.344-0.161,0.763,0.123,0.888,0.482c0.125,0.359,0.041,0.753-0.043,1.123
						c-0.184,0.807-0.367,1.614-0.55,2.421c-0.526,2.312-1.052,4.624-1.577,6.936c-0.293,1.288,0.023,2.693,0.781,3.775
						c1.413,2.016,2.438,4.344,3.583,6.524c0.145,0.275,0.314,0.573,0.606,0.68c0.547,0.2,1.078-0.439,1.091-1.022
						c0.013-0.583-0.273-1.129-0.361-1.705c-0.212-1.398,0.738-2.675,1.149-4.027c0.604-1.989,0-4.191-1.143-5.926
						c-0.705-1.07-1.791-1.869-1.956-3.139c-0.164-1.27,0.459-2.689,1.647-3.169c0.479-0.194,1.004-0.227,1.516-0.294
						c0.512-0.066,1.04-0.176,1.45-0.489c0.41-0.314,0.664-0.884,0.469-1.362c-0.348-0.852,0.094-1.807,0.606-2.571
						c0.512-0.764,1.136-1.543,1.145-2.463c0.005-0.476-0.14-1.023,0.178-1.377c0.156-0.174,0.393-0.253,0.575-0.401
						c0.505-0.408,0.369-1.354-0.23-1.603c-0.706-0.294-1.367-0.858-1.582-1.591c-0.21-0.717-0.108-1.483-0.004-2.223
						c0.096-0.682,0.199-1.387,0.564-1.972c0.365-0.585,1.065-1.018,1.734-0.854c0.666,0.164,1.367,0.252,1.843,0.746
						c0.293,0.304,0.5,0.677,0.757,1.012c0.257,0.335,0.587,0.643,0.999,0.731s0.908-0.122,1.016-0.53
						C405.896,154.176,405.755,153.861,405.563,153.621z M297.552,209.975c-0.265,0.714-1.125,1.036-1.884,0.996
						c-0.76-0.04-1.478-0.347-2.222-0.505c-1.702-0.362-3.561,0.105-4.89,1.228c-0.57,0.481-1.46,1.372-2.234,0.711
						c-0.545-0.465-0.522-1.435-0.305-2.041c0.634-1.774,1.454-3.282,2.857-4.558c0.323-0.293,0.645-0.587,0.968-0.88
						c0.188-0.171,0.38-0.344,0.61-0.45c0.778-0.357,1.659,0.153,2.361,0.641c1.065,0.741,2.13,1.483,3.196,2.224
						c0.452,0.314,0.912,0.637,1.237,1.08C297.571,208.865,297.744,209.46,297.552,209.975z M308.456,215.484
						c-0.99,0.653-2.271-0.069-2.809-0.967c-0.571-0.953-0.57-2.2-0.745-3.27c-0.364-2.218-2.885-4.536-1.815-6.833
						c0.405-0.869,1.421-1.44,2.359-1.24c0.938,0.199,1.65,1.217,1.431,2.151c-0.165,0.702-0.759,1.232-0.984,1.917
						c-0.332,1.014,0.216,2.111,0.912,2.92c0.696,0.809,1.564,1.492,2.063,2.435C309.368,213.541,309.347,214.896,308.456,215.484z
						 M314.612,207.317c-0.279,0.481-0.753,1.051-1.357,1.084c-0.806,0.043-1.455-0.856-1.302-1.617
						c0.039-0.192,0.123-0.371,0.206-0.548c0.102-0.216,0.204-0.432,0.306-0.647c0.076-0.162,0.153-0.324,0.229-0.485
						c0.177-0.375,0.385-0.781,0.769-0.938C315.316,203.403,315.093,206.486,314.612,207.317z"/>
					<path style="fill:#DD5773;" d="M257.769,192.674c0.534,0.72,1.033,1.568,0.911,2.456c-0.171,1.239-3.894,4.048-0.989,4.358
						c2.038,0.217,5.379-1.319,4.402-3.841c-0.486-1.255-1.814-1.961-2.308-3.218c-0.303-0.77-0.236-1.634-0.416-2.442
						c-0.18-0.808-0.778-1.654-1.605-1.628c-0.896,0.028-1.442,1.106-1.29,1.989C256.626,191.232,257.235,191.954,257.769,192.674z"
						/>
					<path style="fill:#DD5773;" d="M253.087,197.299c0.041,0.273,0.105,0.549,0.248,0.785c0.144,0.236,0.379,0.429,0.653,0.463
						c0.472,0.06,0.865-0.338,1.173-0.7c0.436-0.512,0.879-1.037,1.12-1.665c0.53-1.378-0.407-2.833-1.941-2.074
						c-0.548,0.271-0.946,0.797-1.141,1.376C253.003,196.064,252.995,196.694,253.087,197.299z"/>
					<path style="fill:#DD5773;" d="M300.521,165.671c0.367,0.172,0.85,0.286,1.139,0.001c0.584-0.575-0.266-1.439-0.523-1.951
						c-0.259-0.518-0.313-1.005-0.458-1.551c-0.283-1.063-1.443-2.765-2.711-1.7c-0.32,0.268-0.479,0.694-0.491,1.111
						c-0.012,0.417,0.109,0.827,0.272,1.212C298.281,164.046,299.288,165.092,300.521,165.671z"/>
					<path style="fill:#DD5773;" d="M300.914,157.173c0.606-1.595,1.257-2.483,2.668-3.535c1.159-0.864,2.409-1.919,2.516-3.361
						c0.048-0.654-0.352-1.459-1.005-1.404c-0.346,0.029-0.62,0.294-0.863,0.542c-1.612,1.653-3.223,3.307-4.835,4.96
						c-0.771,0.791-1.604,1.791-1.345,2.864C298.458,158.923,300.409,158.502,300.914,157.173z"/>
					<path style="fill:#DD5773;" d="M383.728,196.379c0.241,0.883,0.69,1.824,1.404,2.425c0.272,0.229,1.32,0.915,1.665,0.43
						c0.255-0.359-0.809-1.95-0.977-2.385c-0.362-0.94-0.628-1.919-0.788-2.913c-0.2-1.244-0.237-2.512-0.489-3.746
						c-0.251-1.234-0.747-2.471-1.689-3.306c-0.435-0.385-1.146-0.657-1.559-0.249c-0.287,0.283-0.264,0.766-0.082,1.125
						c0.182,0.359,0.488,0.636,0.746,0.945c0.851,1.023,1.156,2.392,1.29,3.716C383.383,193.745,383.378,195.094,383.728,196.379z"
						/>
					<path style="fill:#DD5773;" d="M378.388,218.602c-0.491,0.471-0.887,1.086-0.927,1.766c-0.085,1.439,1.735,2.304,2.333,0.802
						c0.26-0.653,0.152-1.104,0.671-1.723c0.573-0.683,1.277-1.276,2.026-1.756c1.221-0.783,2.668-1.323,3.527-2.492
						c1.022-1.392,0.928-3.281,0.79-5.003c-0.044-0.544-0.193-1.218-0.725-1.34c-0.344-0.079-0.699,0.141-0.895,0.433
						c-0.197,0.293-0.272,0.648-0.357,0.99c-0.709,2.83-2.445,5.391-4.811,7.097C379.467,217.775,378.879,218.131,378.388,218.602z"
						/>
					<path style="fill:#DD5773;" d="M358.593,257.821c-1.518-1.567-3.036-3.135-4.555-4.702c-0.426-0.439-0.867-0.89-1.429-1.132
						c-0.562-0.242-1.28-0.227-1.718,0.201c-0.648,0.635-0.333,1.784,0.313,2.422c0.646,0.637,1.528,0.978,2.228,1.555
						c0.926,0.764,1.468,1.882,2.031,2.941c0.563,1.06,1.22,2.143,2.266,2.732c0.857,0.483,2.807,0.626,3.149-0.609
						C361.199,260.069,359.29,258.54,358.593,257.821z"/>
					<path style="fill:#DD5773;" d="M369.305,259.117c0.305-0.59-0.232-1.337,0.009-1.955c0.334-0.858,1.804-0.734,2.161-1.583
						c0.296-0.704-0.426-1.437-0.427-2.201c-0.002-1.083,1.422-1.933,1.082-2.961c-0.233-0.705-1.205-0.894-1.887-0.597
						c-0.681,0.297-1.161,0.908-1.693,1.427c-1.1,1.072-2.402,1.646-3.863,2.038c-1.067,0.286-1.913,0.629-2.06,1.856
						c-0.352,2.936,2.717,4.28,5.07,4.481C368.292,259.671,369.031,259.649,369.305,259.117z"/>
					<path style="fill:#DD5773;" d="M307.03,268.645c-0.548,0.141-0.876,0.696-1.074,1.226c-0.198,0.53-0.343,1.111-0.749,1.505
						c-0.647,0.629-1.756,0.585-2.376,1.24c-0.611,0.646-0.476,1.583-0.632,2.387c-0.137,0.707-0.443,1.2-0.935,1.707
						c-0.953,0.979-1.174,2.284-0.035,3.344c0.823,0.766,2.18,0.877,3.116,0.256c1.019-0.676,1.408-1.977,1.573-3.189
						c0.164-1.212,0.19-2.485,0.766-3.564c0.337-0.632,0.843-1.156,1.251-1.744c0.408-0.589,0.728-1.297,0.611-2.004
						C308.428,269.101,307.724,268.466,307.03,268.645z"/>
				</g>
			</g>
		</g>
		<text transform="matrix(1 0 0 1 160.172 359.553)" style="fill:#2D3962; font-family:'Montserrat-Bold'; font-size:40.0574px;">Airtravel</text>
		
			<text transform="matrix(1 0 0 1 176.2614 374.9193)" style="fill:#2D3962; font-family:'Montserrat-SemiBold'; font-size:9.8116px; letter-spacing:1;">EXPLORE THE WORLD</text>
	</g>
</g>
</svg>
